<?xml version="1.0" encoding="UTF-8" standalone="no"?>
<svg
   xmlns:dc="http://purl.org/dc/elements/1.1/"
   xmlns:cc="http://creativecommons.org/ns#"
   xmlns:rdf="http://www.w3.org/1999/02/22-rdf-syntax-ns#"
   xmlns:svg="http://www.w3.org/2000/svg"
   xmlns="http://www.w3.org/2000/svg"
   xmlns:sodipodi="http://sodipodi.sourceforge.net/DTD/sodipodi-0.dtd"
   xmlns:inkscape="http://www.inkscape.org/namespaces/inkscape"
   version="1.1"
   x="0px"
   y="0px"
   viewBox="0 0 355 280"
   xml:space="preserve"
   width="355"
   height="280"
   id="svg809"
   sodipodi:docname="pixeltrue-special-deals-box.svg"
   inkscape:version="0.92.3 (2405546, 2018-03-11)"><metadata
   id="metadata815"><rdf:RDF><cc:Work
       rdf:about=""><dc:format>image/svg+xml</dc:format><dc:type
         rdf:resource="http://purl.org/dc/dcmitype/StillImage" /><dc:title></dc:title></cc:Work></rdf:RDF></metadata><defs
   id="defs813">
	
	

		
		
		
		
		
		
		
		
		
		
		
		
		
		
		
		
		
		
		
		
		
		
		
		
		
		
		
		
		
		
		
		
	
		
		
		
		
		
		
		
		
		
		
		
		
		
		
		
		
		
		
		
		
		
		
		
		
		
		
		
		
		
		
		
		
		
	
	
	
	
	
	
	
	
	
	
	
	
	
	
	
	
	
	
	
	
	
</defs><sodipodi:namedview
   pagecolor="#ffffff"
   bordercolor="#666666"
   borderopacity="1"
   objecttolerance="10"
   gridtolerance="10"
   guidetolerance="10"
   inkscape:pageopacity="0"
   inkscape:pageshadow="2"
   inkscape:window-width="1920"
   inkscape:window-height="1017"
   id="namedview811"
   showgrid="false"
   inkscape:zoom="2.0011122"
   inkscape:cx="294.03181"
   inkscape:cy="142.52225"
   inkscape:window-x="0"
   inkscape:window-y="0"
   inkscape:window-maximized="1"
   inkscape:current-layer="svg809" />



<ellipse
   id="ellipse130"
   style="fill:#ec615b"
   ry="3.0999999"
   rx="0"
   cy="-467.36856"
   cx="-202.25266" /><ellipse
   id="ellipse136"
   style="fill:#ec615b"
   ry="1.2"
   rx="0"
   cy="-878.06854"
   cx="355.9473" />
<ellipse
   cx="1425.647"
   cy="-545.07526"
   rx="0"
   ry="1"
   style="fill:#ec615b"
   id="ellipse373" /><ellipse
   id="ellipse124"
   style="fill:#e5261f;stroke-width:0.99324322;fill-opacity:1"
   ry="7.2506757"
   rx="7.4493241"
   cy="257.55905"
   cx="73.725571" /><ellipse
   id="ellipse132"
   style="fill:#444444;stroke-width:0.99324322"
   ry="3.2777026"
   rx="3.377027"
   cy="229.54956"
   cx="84.551933" /><ellipse
   id="ellipse138"
   style="fill:#e5261f;stroke-width:0.99324322;fill-opacity:1"
   ry="7.151351"
   rx="7.3499999"
   cy="50.176556"
   cx="74.276146" /><ellipse
   id="ellipse140"
   style="fill:#444444;stroke-width:0.99324322"
   ry="5.9594593"
   rx="6.1581078"
   cy="17.630838"
   cx="96.95475" /><g
   id="g152"
   transform="matrix(0.99324324,0,0,0.99324324,-664.01169,-393.88002)">
		<g
   id="g150">
			<path
   inkscape:connector-curvature="0"
   id="path148"
   style="fill:#8c8c8c"
   d="m 1001.8,557.5 c -10.1,0.2 -19.5,7.2 -21.9,17.2 -2.1,8.7 3.3,19.1 13.2,13.7 3.5,-1.9 7,-5.3 7.6,-9.5 0.4,-3.3 -1.7,-6.1 -5.2,-5.8 -4.9,0.4 -9.4,6.2 -12,9.8 -3,4.1 -6.1,9.8 -5.6,15.1 1,9.1 14.1,10.9 18.7,3.7 0.8,-1.2 -0.8,-3 -2.1,-2.1 -6.9,5.3 -14.1,14 -11.4,23.4 2.1,7.4 10.1,12.7 17.6,10.1 1.8,-0.6 1,-3.5 -0.8,-2.9 -6.7,2.3 -13.7,-3.3 -14.3,-10.1 -0.6,-7.3 4.9,-13.7 10.4,-17.9 -0.7,-0.7 -1.4,-1.4 -2.1,-2.1 -2,3.2 -6.5,3.9 -9.8,2.2 -4.7,-2.5 -3.4,-7.9 -1.6,-11.9 1.5,-3.4 3.7,-6.5 6.2,-9.2 1,-1.1 3.6,-4.1 5,-4.3 1.3,0.3 2.7,0.7 4,1 -0.1,1.3 -0.5,2.4 -1.2,3.5 -2.7,4.4 -9.5,7.9 -13.2,2.8 -2.5,-3.3 -0.9,-9.5 0.8,-12.8 3.4,-6.6 10.2,-10.8 17.5,-10.9 2.1,-0.1 2.1,-3.1 0.2,-3 z" />
		</g>
	</g><g
   id="g158"
   transform="matrix(0.99324324,0,0,0.99324324,-209.15541,-284.37758)">
		<g
   id="g156">
			<path
   inkscape:connector-curvature="0"
   id="path154"
   style="fill:#8c8c8c"
   d="m 216.4,406 c 3.2,-3.9 8.7,-2.6 10.3,1.9 1,2.7 0.9,5 3.4,6.9 4.5,3.4 10.5,0.8 15.3,-0.2 12.5,-2.5 8.4,10 15.5,14.9 3.1,2.2 7.8,1.6 9.4,-2 0.8,-1.7 -1.8,-3.3 -2.6,-1.5 -2.6,5.8 -7.4,-1.7 -8.2,-4 -0.5,-1.4 -0.8,-2.8 -1.4,-4.1 -0.9,-2.1 -2.1,-4.1 -4.1,-5.4 -5.6,-3.5 -11.8,0.8 -17.5,0.9 -6.1,0.2 -5.5,-4 -7.6,-8.1 -0.9,-1.8 -2.4,-3.1 -4.3,-3.9 -3.7,-1.4 -7.9,-0.6 -10.3,2.5 -1.3,1.5 0.9,3.6 2.1,2.1 z" />
		</g>
	</g><g
   id="g164"
   transform="matrix(0.99324324,0,0,0.99324324,-209.15541,-284.37758)">
		<g
   id="g162">
			<path
   inkscape:connector-curvature="0"
   id="path160"
   style="fill:#8c8c8c"
   d="m 227.1,434.3 c 6.3,-6.8 15.4,-3.6 19.1,3.8 2.3,4.6 3.9,9.6 8.9,11.9 7.6,3.5 17.5,-0.4 20.1,-8.3 0.6,-1.8 -2.3,-2.6 -2.9,-0.8 -1.9,5.8 -8.9,8.6 -14.5,6.9 -6.9,-2 -7.4,-9.9 -11.2,-14.9 -5.2,-6.9 -15.8,-7 -21.6,-0.7 -1.3,1.4 0.8,3.5 2.1,2.1 z" />
		</g>
	</g><g
   id="g176"
   transform="matrix(0.99324324,0,0,0.99324324,-821.24595,-596.03835)">
		<g
   id="g174">
			<path
   inkscape:connector-curvature="0"
   id="path172"
   style="fill:#a5a5a5"
   d="m 966.1,878.5 c 6.8,-10.1 31.4,3.6 33.9,-12.6 0.3,-1.9 -2.6,-2.7 -2.9,-0.8 -1.3,8.5 -13.1,6.5 -19.1,6.3 -5.6,-0.1 -11.2,0.7 -14.5,5.6 -1.1,1.6 1.5,3.1 2.6,1.5 z" />
		</g>
	</g><g
   id="g333"
   transform="matrix(0.99324324,0,0,0.99324324,-360.77417,-143.98983)">
			<g
   id="g331">
				<path
   d="m 595.3,187 c 3.1,-14 10.2,-26.5 20.4,-36.6 1.4,-1.4 -0.7,-3.5 -2.1,-2.1 -10.6,10.4 -18,23.4 -21.2,37.9 -0.5,1.9 2.4,2.7 2.9,0.8 z"
   style="fill:#8c8c8c"
   id="path329"
   inkscape:connector-curvature="0" />
			</g>
		</g><g
   id="g339"
   transform="matrix(0.99324324,0,0,0.99324324,-360.77417,-143.98983)">
			<g
   id="g337">
				<path
   d="m 617.3,190.2 c 14.9,-11.6 31.7,-20.3 49.8,-25.9 1.8,-0.6 1.1,-3.5 -0.8,-2.9 -18.6,5.7 -35.8,14.7 -51.1,26.6 -1.5,1.3 0.6,3.4 2.1,2.2 z"
   style="fill:#8c8c8c"
   id="path335"
   inkscape:connector-curvature="0" />
			</g>
		</g><g
   id="g345"
   transform="matrix(0.99324324,0,0,0.99324324,-360.77417,-143.98983)"
   style="fill:#e5261f;fill-opacity:1">
			<g
   id="g343"
   style="fill:#e5261f;fill-opacity:1">
				<path
   d="m 587.2,388 c 3.7,9.6 4.1,19.6 1.3,29.5 -0.5,1.9 2.4,2.7 2.9,0.8 3,-10.4 2.5,-21 -1.3,-31.1 -0.7,-1.8 -3.6,-1 -2.9,0.8 z"
   style="fill:#e5261f;fill-opacity:1"
   id="path341"
   inkscape:connector-curvature="0" />
			</g>
		</g><g
   id="g351"
   transform="matrix(0.99324324,0,0,0.99324324,-360.77417,-143.98983)">
			<g
   id="g349">
				<path
   d="m 612.8,391.3 c 5.3,6.4 11.9,11.6 19.3,15.3 1.7,0.9 3.2,-1.7 1.5,-2.6 -7.3,-3.6 -13.6,-8.6 -18.7,-14.9 -1.2,-1.4 -3.3,0.7 -2.1,2.2 z"
   style="fill:#353535"
   id="path347"
   inkscape:connector-curvature="0" />
			</g>
		</g><ellipse
   cx="314.36627"
   cy="60.938366"
   rx="14.501351"
   ry="14.104053"
   style="fill:#444444;stroke-width:0.99324322"
   id="ellipse371" /><ellipse
   cx="341.08453"
   cy="95.105919"
   rx="12.216892"
   ry="11.819594"
   style="fill:#e5261f;stroke-width:0.99324322;fill-opacity:1"
   id="ellipse375" /><path
   d="m 106.6461,140.27638 c 1.39054,7.25068 3.07905,14.89865 5.26419,22.8446 7.25067,25.92365 17.5804,47.57635 27.81081,64.85878 2.97973,0.69527 7.25067,1.68851 12.51486,2.28446 7.25068,0.89392 18.97095,2.38378 32.18108,-1.39054 3.17838,-0.89392 1.78784,-0.79459 15.79257,-6.55541 14.00473,-5.76081 14.79933,-5.56216 20.16284,-7.94594 9.13784,-3.97297 17.38176,-9.73379 33.57162,-20.95743 4.66824,-3.27771 11.12433,-7.84663 18.67297,-13.50811 0.49663,-3.17838 1.09257,-7.84662 0.99325,-13.50811 -0.19865,-8.93919 -2.08581,-15.39527 -4.76757,-24.73176 -4.27095,-14.60067 -7.25068,-24.5331 -9.13784,-30.79054 -3.77432,-2.38378 -7.84662,-4.76756 -12.51486,-6.9527 -15.39527,-7.449324 -29.99595,-10.429054 -41.2196,-11.620946 -11.52162,0.893919 -20.65946,2.97973 -26.81756,4.668244 -27.01622,7.449322 -45.58987,21.454052 -57.11149,30.293922 -6.85338,5.16486 -12.11757,9.8331 -15.39527,13.01148 z"
   style="fill:#ffffff;stroke-width:0.99324322"
   id="path378"
   inkscape:connector-curvature="0" /><g
   id="g386"
   transform="matrix(0.99324324,0,0,0.99324324,-360.77417,-143.98983)">
			<g
   id="g384">
				<path
   d="m 469.6,287.1 c 3.4,32.2 17.6,61.5 33,89.6 0.9,1.7 3.5,0.2 2.6,-1.5 -15.1,-27.5 -29.3,-56.4 -32.6,-88.1 -0.2,-1.9 -3.2,-2 -3,0 z"
   style="fill:#161616"
   id="path382"
   inkscape:connector-curvature="0" />
			</g>
		</g><g
   id="g392"
   transform="matrix(0.99324324,0,0,0.99324324,-360.77417,-143.98983)">
			<g
   id="g390">
				<path
   d="m 472.4,287.9 c 24.5,-26.7 58.1,-44 94,-48.7 1.9,-0.2 1.9,-3.2 0,-3 -36.7,4.8 -71.1,22.2 -96.2,49.5 -1.2,1.5 0.9,3.6 2.2,2.2 z"
   style="fill:#161616"
   id="path388"
   inkscape:connector-curvature="0" />
			</g>
		</g><g
   id="g398"
   transform="matrix(0.99324324,0,0,0.99324324,-360.77417,-143.98983)">
			<g
   id="g396">
				<path
   d="m 566.6,238.8 c 16.3,24.5 23.9,53 31.2,81.1 0.5,1.9 3.4,1.1 2.9,-0.8 -7.4,-28.4 -15.1,-57.1 -31.5,-81.8 -1.1,-1.6 -3.7,-0.1 -2.6,1.5 z"
   style="fill:#161616"
   id="path394"
   inkscape:connector-curvature="0" />
			</g>
		</g><g
   id="g404"
   transform="matrix(0.99324324,0,0,0.99324324,-360.77417,-143.98983)">
			<g
   id="g402">
				<path
   d="m 506.1,376.6 c 18.3,-5.5 35.9,-12.8 52.7,-21.9 8.3,-4.5 16.3,-9.5 24.1,-14.9 7,-4.8 14.3,-9.8 18.1,-17.6 0.9,-1.7 -1.7,-3.2 -2.6,-1.5 -4.1,8.3 -12.5,13.5 -19.9,18.5 -7.3,4.9 -14.9,9.5 -22.7,13.7 -16.1,8.6 -33,15.5 -50.4,20.8 -1.9,0.6 -1.1,3.5 0.7,2.9 z"
   style="fill:#161616"
   id="path400"
   inkscape:connector-curvature="0" />
			</g>
		</g><g
   id="g410"
   transform="matrix(0.99324324,0,0,0.99324324,-360.77417,-143.98983)">
			<g
   id="g408">
				<path
   d="m 568.2,239 c 19.8,0.8 38.8,7.4 54.8,19.2 1.6,1.1 3.1,-1.5 1.5,-2.6 -16.4,-12.1 -35.9,-18.8 -56.3,-19.6 -1.9,-0.1 -1.9,2.9 0,3 z"
   style="fill:#161616"
   id="path406"
   inkscape:connector-curvature="0" />
			</g>
		</g><g
   id="g416"
   transform="matrix(0.99324324,0,0,0.99324324,-360.77417,-143.98983)">
			<g
   id="g414">
				<path
   d="m 622.8,256.9 c 9.1,20.9 13.9,43.3 14,66.2 0,1.9 3,1.9 3,0 -0.2,-23.4 -5.1,-46.3 -14.5,-67.7 -0.7,-1.8 -3.2,-0.3 -2.5,1.5 z"
   style="fill:#161616"
   id="path412"
   inkscape:connector-curvature="0" />
			</g>
		</g><g
   id="g422"
   transform="matrix(0.99324324,0,0,0.99324324,-360.77417,-143.98983)">
			<g
   id="g420">
				<path
   d="m 599.1,322.5 c 12.4,8 27.1,5.8 40.6,2.2 1.9,-0.5 1.1,-3.4 -0.8,-2.9 -12.7,3.4 -26.5,5.6 -38.2,-1.9 -1.7,-1 -3.2,1.6 -1.6,2.6 z"
   style="fill:#161616"
   id="path418"
   inkscape:connector-curvature="0" />
			</g>
		</g><g
   id="g428"
   transform="matrix(0.99324324,0,0,0.99324324,-360.77417,-143.98983)">
			<g
   id="g426">
				<path
   d="m 504.5,377.1 c 17.8,4 36.3,2.7 53.3,-4 1.8,-0.7 1,-3.6 -0.8,-2.9 -16.5,6.5 -34.4,8 -51.7,4 -1.9,-0.4 -2.7,2.5 -0.8,2.9 z"
   style="fill:#161616"
   id="path424"
   inkscape:connector-curvature="0" />
			</g>
		</g><g
   id="g434"
   transform="matrix(0.99324324,0,0,0.99324324,-360.77417,-143.98983)">
			<g
   id="g432">
				<path
   d="m 558.6,372.9 c 29.7,-11.2 57.3,-27.3 81.5,-47.9 1.5,-1.3 -0.7,-3.4 -2.1,-2.1 -23.8,20.2 -50.9,36.1 -80.1,47.1 -1.9,0.7 -1.1,3.6 0.7,2.9 z"
   style="fill:#161616"
   id="path430"
   inkscape:connector-curvature="0" />
			</g>
		</g><path
   d="m 137.03934,114.35273 c 12.61419,33.37298 25.3277,66.74595 37.94189,100.21825 9.43581,2.68175 18.97095,5.26419 28.40676,7.94594 7.05203,-3.17838 14.10405,-6.45608 21.15608,-9.63446 -8.04527,-3.47635 -16.09054,-6.9527 -24.13581,-10.42905 -12.91216,-33.77027 -25.82432,-67.63986 -38.73649,-101.41014 -3.57567,1.58919 -7.35,3.37703 -11.22364,5.46284 -5.06554,2.48311 -9.43581,5.26419 -13.40879,7.84662 z"
   style="fill:#303030;stroke-width:0.99324322;fill-opacity:0.9951691"
   id="path490"
   inkscape:connector-curvature="0" /><path
   d="m 227.9211,94.686518 c 8.14459,14.700002 16.98446,35.260132 20.65946,60.786482 1.19189,8.34325 1.68851,16.28919 1.68851,23.44054 -15.79257,12.11757 -35.06148,24.93041 -58.20405,36.84933 -12.91216,6.65473 -25.42703,12.21689 -37.04798,16.78581 6.45609,0 12.91217,0 19.36825,0 13.80608,-5.76081 29.10202,-13.01149 45.29189,-22.24865 17.58041,-10.03176 32.6777,-20.46081 45.29189,-30.19459 -2.38378,-11.91892 -4.96621,-24.13581 -7.7473,-36.45203 -3.07905,-13.60743 -6.25743,-26.81757 -9.43581,-39.82905 -1.78783,-1.78784 -4.76756,-4.27095 -9.03851,-6.257436 -4.37027,-1.986487 -8.24392,-2.681757 -10.82635,-2.880406 z"
   style="fill:#303030;stroke-width:0.99324322;fill-opacity:0.9951691"
   id="path492"
   inkscape:connector-curvature="0" /><path
   d="m 149.05759,106.80409 c -2.18514,-1.78784 0.69527,-12.514869 8.64121,-15.891896 6.05879,-2.582433 13.90541,-0.496622 19.36824,5.462838 -3.07905,0.893919 -7.74729,2.284459 -13.30945,4.568918 -9.93244,4.0723 -13.21014,7.05203 -14.7,5.86014 z"
   style="fill:#303030;stroke-width:0.99324322;fill-opacity:0.9951691"
   id="path494"
   inkscape:connector-curvature="0" /><path
   d="m 162.86367,96.375032 c 4.66824,-2.97973 11.42229,-8.144595 17.28243,-16.388514 10.03176,-14.203381 10.82635,-28.704732 10.72703,-34.763516 1.68851,-0.496622 11.72027,-3.575676 17.28243,1.291216 7.54865,6.555405 0.59594,22.248649 -0.89392,25.526351 -4.37027,9.833111 -11.52162,15.196625 -13.80608,16.785814 -12.71352,8.939189 -26.61892,7.945946 -30.59189,7.548649 z"
   style="fill:#303030;stroke-width:0.99324322;fill-opacity:0.9951691"
   id="path496"
   inkscape:connector-curvature="0" /><path
   d="m 112.00961,69.954758 c 4.96622,-0.794594 7.7473,8.045274 18.07703,16.785814 9.23716,7.747297 19.56689,11.223649 27.61216,13.011487 -3.37703,2.582431 -9.73378,6.853381 -18.57365,7.945941 -12.81283,1.58919 -30.29392,-3.2777 -34.46554,-15.49459 -3.07905,-9.237162 1.78784,-21.454057 7.35,-22.248652 z"
   style="fill:#303030;stroke-width:0.99324322;fill-opacity:0.9951691"
   id="path498"
   inkscape:connector-curvature="0" /><path
   d="m 141.11164,229.66827 c 5.86013,-2.08581 14.50135,-5.16486 24.83108,-9.53513 17.58041,-7.35 29.99595,-12.51487 43.80203,-21.85135 6.85338,-4.66825 16.09054,-11.8196 25.92365,-22.24865 4.86689,-9.73378 9.32718,-8.74375 16.10914,-33.21474 5.59836,-17.16759 5.41696,-33.10931 7.92734,-31.94202 3.57567,9.33648 7.35,20.16284 9.93243,33.37298 2.58244,12.81283 3.675,24.43378 3.97298,34.26689 -10.72703,9.33648 -20.26216,16.28919 -27.41352,21.15608 -34.46554,23.53986 -58.20405,29.10203 -63.46824,30.29392 -8.14459,1.78784 -14.40203,2.08581 -17.18311,2.18513 -10.42905,0.3973 -18.87162,-1.19189 -24.43378,-2.48311 z"
   id="path510"
   inkscape:connector-curvature="0"
   style="opacity:0.76700003;stroke-width:0.99324322"
   sodipodi:nodetypes="cccccccccccc" />

</svg>