<?xml version="1.0" encoding="UTF-8"?>
<!-- Created with Inkscape (http://www.inkscape.org/) -->
<svg width="240" height="64" version="1.1" viewBox="0 0 63.5 16.933" xmlns="http://www.w3.org/2000/svg" xmlns:cc="http://creativecommons.org/ns#" xmlns:dc="http://purl.org/dc/elements/1.1/" xmlns:rdf="http://www.w3.org/1999/02/22-rdf-syntax-ns#">
 <metadata>
  <rdf:RDF>
   <cc:Work rdf:about="">
    <dc:format>image/svg+xml</dc:format>
    <dc:type rdf:resource="http://purl.org/dc/dcmitype/StillImage"/>
    <dc:title/>
   </cc:Work>
  </rdf:RDF>
 </metadata>
 <g transform="translate(0 -280.07)">
  <flowRoot fill="black" font-family="sans-serif" font-size="40px" letter-spacing="0px" stroke-width="1px" word-spacing="0px" style="line-height:125%" xml:space="preserve"><flowRegion><rect x="-.35714" y=".42857" width="240.71" height="63.214"/></flowRegion><flowPara/></flowRoot>
  <g stroke-width=".26458px" aria-label="Mojanabava">
   <g stroke-width=".26458px">
    <path d="m9.7544 284.01v0.23989q-0.40781 0.012-0.62371 0.0959-0.20391 0.072-0.27587 0.28787-0.071967 0.2039-0.071967 0.6477v5.9492q0 0.4318 0.071967 0.6477t0.27587 0.28787q0.2159 0.072 0.62371 0.096v0.23989q-0.27587-0.024-0.69568-0.024-0.40781-0.012-0.82762-0.012-0.46778 0-0.87559 0.012-0.40781 0-0.65969 0.024v-0.23989q0.40781-0.024 0.61172-0.096 0.2159-0.072 0.28787-0.28787 0.071967-0.2159 0.071967-0.6477v-6.5969l0.047978 0.036-2.9386 7.8924h-0.19191l-3.0226-7.7844v6.3331q0 0.4318 0.071967 0.68368 0.083961 0.23989 0.31186 0.34784 0.23989 0.096 0.70767 0.11995v0.23989q-0.2159-0.024-0.56374-0.024-0.34784-0.012-0.65969-0.012-0.29986 0-0.61172 0.012-0.29986 0-0.50377 0.024v-0.23989q0.40781-0.024 0.61172-0.11995 0.2159-0.10795 0.28787-0.34784 0.071967-0.25188 0.071967-0.68368v-5.8293q0-0.4438-0.071967-0.6477-0.071967-0.2159-0.28787-0.28787-0.20391-0.084-0.61172-0.0959v-0.23989q0.20391 0.012 0.50377 0.024 0.31186 0.012 0.61172 0.012 0.26388 0 0.53975-0.012 0.28787-0.012 0.47978-0.024l2.7227 7.1727-0.20391 0.096 2.6988-7.2326q0.14393 0 0.27587 0 0.14393 0 0.28787 0 0.41981 0 0.82762-0.012 0.41981-0.012 0.69568-0.024z"/>
    <path d="m13.312 286.16q0.76764 0 1.3794 0.33585 0.61172 0.33584 0.97155 1.0555 0.37183 0.71967 0.37183 1.8711 0 1.1515-0.37183 1.8711-0.35983 0.70767-0.97155 1.0435-0.61172 0.33585-1.3794 0.33585-0.75565 0-1.3794-0.33585-0.61172-0.33584-0.98354-1.0435-0.35983-0.71967-0.35983-1.8711 0-1.1515 0.35983-1.8711 0.37183-0.71967 0.98354-1.0555 0.62371-0.33585 1.3794-0.33585zm0 0.23989q-0.68368 0-1.1275 0.70768-0.4318 0.70767-0.4318 2.3149 0 1.6073 0.4318 2.3149 0.44379 0.69568 1.1275 0.69568 0.68368 0 1.1155-0.69568 0.44379-0.70767 0.44379-2.3149 0-1.6072-0.44379-2.3149-0.4318-0.70768-1.1155-0.70768z"/>
    <path d="m16.296 294.76v-0.17992q0.74366-0.036 1.1155-0.6477 0.37183-0.59972 0.37183-1.6552v-4.6418q0-0.53975-0.19191-0.79163-0.19191-0.26388-0.71967-0.26388v-0.25188q0.38382 0.036 0.74366 0.036 0.34784 0 0.65969-0.036 0.32385-0.048 0.58773-0.13194v4.9297q0 0.89959-0.20391 1.6552-0.19191 0.75565-0.65969 1.2474-0.29986 0.32385-0.74366 0.52776-0.4318 0.2039-0.95956 0.2039zm1.9191-11.431q0.31186 0 0.53975 0.2279 0.22789 0.22789 0.22789 0.53975 0 0.31185-0.22789 0.53975-0.2279 0.22789-0.53975 0.22789-0.31186 0-0.53975-0.22789-0.2279-0.2279-0.2279-0.53975 0-0.31186 0.2279-0.53975 0.22789-0.2279 0.53975-0.2279z"/>
    <path d="m21.772 292.59q-0.77964 0-1.1395-0.38383-0.34784-0.39581-0.34784-1.0435 0-0.50377 0.23989-0.82762 0.25188-0.33584 0.63571-0.53975 0.38382-0.2159 0.80363-0.35983 0.4318-0.15593 0.81562-0.29986 0.38382-0.14394 0.62371-0.32385 0.25188-0.17992 0.25188-0.45579v-0.74366q0-0.50376-0.15593-0.76764-0.14393-0.26388-0.39582-0.34784-0.25188-0.096-0.56374-0.096-0.29986 0-0.6477 0.084-0.33584 0.084-0.53975 0.34784 0.22789 0.048 0.39582 0.23989 0.16792 0.19191 0.16792 0.49177 0 0.29987-0.19191 0.47978-0.19191 0.16792-0.49177 0.16792-0.34784 0-0.51576-0.2159-0.15593-0.22789-0.15593-0.50376 0-0.31186 0.15593-0.50377 0.15593-0.19191 0.39582-0.35983 0.27587-0.19191 0.70767-0.32385 0.4438-0.14394 0.99554-0.14394 0.49177 0 0.83961 0.11995 0.34784 0.10795 0.57573 0.32385 0.31186 0.28787 0.40781 0.70767 0.09596 0.40781 0.09596 0.98355v3.3344q0 0.28787 0.08396 0.4318 0.08396 0.13194 0.28787 0.13194 0.16792 0 0.28787-0.072 0.13194-0.072 0.25188-0.17991l0.13194 0.2039q-0.25188 0.19191-0.47978 0.32385-0.22789 0.11995-0.61172 0.11995-0.62371 0-0.82762-0.32385-0.20391-0.32385-0.20391-0.74366-0.38382 0.63571-0.87559 0.85161-0.47978 0.2159-1.0075 0.2159zm0.52776-0.47978q0.35983 0 0.70767-0.20391 0.34784-0.2159 0.6477-0.70767v-2.3509q-0.17992 0.26388-0.56374 0.41981-0.37183 0.15592-0.77964 0.34783-0.39582 0.17992-0.68368 0.50377-0.28787 0.31186-0.28787 0.89958 0 0.55175 0.27587 0.82762 0.27587 0.26388 0.68368 0.26388z"/>
   </g>
   <g fill="#e5261f">
    <path d="m30.169 286.16q0.45579 0 0.75565 0.11995 0.31186 0.11994 0.51576 0.33584 0.2279 0.23989 0.32385 0.59973 0.09596 0.35983 0.09596 0.97155v3.2025q0 0.50377 0.20391 0.68369 0.2159 0.17991 0.70767 0.17991v0.25189q-0.20391-0.012-0.62371-0.024-0.41981-0.024-0.81562-0.024-0.39582 0-0.77964 0.024-0.37183 0.012-0.56374 0.024v-0.25189q0.4318 0 0.61172-0.17991 0.17992-0.17992 0.17992-0.68369v-3.4664q0-0.37183-0.05997-0.68369-0.05997-0.31185-0.27587-0.50376-0.2039-0.19191-0.6357-0.19191-0.75565 0-1.2234 0.6357-0.45579 0.62371-0.45579 1.5473v2.6628q0 0.50377 0.17992 0.68369 0.17992 0.17991 0.61172 0.17991v0.25189q-0.19191-0.012-0.57573-0.024-0.37183-0.024-0.76764-0.024t-0.81562 0.024q-0.41981 0.012-0.62371 0.024v-0.25189q0.49177 0 0.69568-0.17991 0.2159-0.17992 0.2159-0.68369v-3.7543q0-0.53975-0.19191-0.79163-0.19191-0.26388-0.71967-0.26388v-0.25188q0.38382 0.036 0.74366 0.036 0.34784 0 0.6597-0.036 0.32385-0.048 0.58773-0.13194v1.4153q0.31186-0.81562 0.8636-1.1275 0.56374-0.32385 1.1755-0.32385z"/>
    <path d="m34.915 292.59q-0.77964 0-1.1395-0.38383-0.34784-0.39581-0.34784-1.0435 0-0.50377 0.23989-0.82762 0.25188-0.33584 0.63571-0.53975 0.38382-0.2159 0.80363-0.35983 0.4318-0.15593 0.81562-0.29986 0.38382-0.14394 0.62371-0.32385 0.25188-0.17992 0.25188-0.45579v-0.74366q0-0.50376-0.15593-0.76764-0.14393-0.26388-0.39582-0.34784-0.25188-0.096-0.56374-0.096-0.29986 0-0.6477 0.084-0.33584 0.084-0.53975 0.34784 0.2279 0.048 0.39582 0.23989 0.16792 0.19191 0.16792 0.49177 0 0.29987-0.19191 0.47978-0.19191 0.16792-0.49177 0.16792-0.34784 0-0.51576-0.2159-0.15593-0.22789-0.15593-0.50376 0-0.31186 0.15593-0.50377 0.15593-0.19191 0.39582-0.35983 0.27587-0.19191 0.70767-0.32385 0.44379-0.14394 0.99554-0.14394 0.49177 0 0.83961 0.11995 0.34784 0.10795 0.57573 0.32385 0.31186 0.28787 0.40781 0.70767 0.09596 0.40781 0.09596 0.98355v3.3344q0 0.28787 0.08396 0.4318 0.08396 0.13194 0.28787 0.13194 0.16792 0 0.28787-0.072 0.13194-0.072 0.25188-0.17991l0.13194 0.2039q-0.25188 0.19191-0.47978 0.32385-0.2279 0.11995-0.61172 0.11995-0.62371 0-0.82762-0.32385-0.2039-0.32385-0.2039-0.74366-0.38382 0.63571-0.8756 0.85161-0.47978 0.2159-1.0075 0.2159zm0.52776-0.47978q0.35983 0 0.70767-0.20391 0.34784-0.2159 0.6477-0.70767v-2.3509q-0.17992 0.26388-0.56374 0.41981-0.37183 0.15592-0.77964 0.34783-0.39582 0.17992-0.68368 0.50377-0.28787 0.31186-0.28787 0.89958 0 0.55175 0.27587 0.82762 0.27587 0.26388 0.68368 0.26388z"/>
    <path d="m42.844 286.16q0.98354 0 1.6312 0.81563 0.6477 0.80362 0.6477 2.4469 0 1.0795-0.37183 1.8112-0.35983 0.71967-0.97155 1.0795-0.61172 0.35984-1.3314 0.35984-0.59972 0-1.1635-0.33585-0.55174-0.34784-0.82762-1.0195l0.23989 0.13193q0.29986 0.47978 0.74366 0.71967 0.4438 0.2279 0.91158 0.2279 0.80363 0 1.1994-0.71967 0.40781-0.73166 0.40781-2.255 0-0.97155-0.15593-1.6192-0.15593-0.6477-0.47978-0.95955-0.32385-0.32385-0.82762-0.32385-0.55174 0-1.0315 0.50376-0.46778 0.49178-0.57573 1.4513l-0.14393-0.16792q0.13194-1.0195 0.70767-1.5833 0.58773-0.56374 1.3914-0.56374zm-1.8711-3.0466v8.7679q-0.15593 0.13194-0.32385 0.27588-0.15593 0.13194-0.31186 0.26387-0.15593 0.13194-0.32385 0.27588l-0.2039-0.084q0.04798-0.16793 0.05997-0.33585 0.02399-0.17992 0.02399-0.35983v-7.3646q0-0.53975-0.19191-0.79164-0.19191-0.26387-0.71967-0.26387v-0.25189q0.38382 0.036 0.74366 0.036 0.34784 0 0.6597-0.036 0.32385-0.048 0.58773-0.13194z"/>
    <path d="m47.635 292.59q-0.77964 0-1.1395-0.38383-0.34784-0.39581-0.34784-1.0435 0-0.50377 0.23989-0.82762 0.25188-0.33584 0.63571-0.53975 0.38382-0.2159 0.80363-0.35983 0.4318-0.15593 0.81562-0.29986 0.38382-0.14394 0.62371-0.32385 0.25188-0.17992 0.25188-0.45579v-0.74366q0-0.50376-0.15593-0.76764-0.14393-0.26388-0.39582-0.34784-0.25188-0.096-0.56374-0.096-0.29986 0-0.6477 0.084-0.33584 0.084-0.53975 0.34784 0.22789 0.048 0.39582 0.23989 0.16792 0.19191 0.16792 0.49177 0 0.29987-0.19191 0.47978-0.19191 0.16792-0.49177 0.16792-0.34784 0-0.51576-0.2159-0.15593-0.22789-0.15593-0.50376 0-0.31186 0.15593-0.50377t0.39582-0.35983q0.27587-0.19191 0.70767-0.32385 0.4438-0.14394 0.99554-0.14394 0.49177 0 0.83961 0.11995 0.34784 0.10795 0.57573 0.32385 0.31186 0.28787 0.40781 0.70767 0.09595 0.40781 0.09595 0.98355v3.3344q0 0.28787 0.08396 0.4318 0.08396 0.13194 0.28787 0.13194 0.16792 0 0.28787-0.072 0.13194-0.072 0.25188-0.17991l0.13194 0.2039q-0.25188 0.19191-0.47978 0.32385-0.22789 0.11995-0.61172 0.11995-0.62371 0-0.82762-0.32385-0.20391-0.32385-0.20391-0.74366-0.38382 0.63571-0.87559 0.85161-0.47978 0.2159-1.0075 0.2159zm0.52776-0.47978q0.35983 0 0.70767-0.20391 0.34784-0.2159 0.6477-0.70767v-2.3509q-0.17992 0.26388-0.56374 0.41981-0.37183 0.15592-0.77964 0.34783-0.39582 0.17992-0.68368 0.50377-0.28787 0.31186-0.28787 0.89958 0 0.55175 0.27587 0.82762 0.27587 0.26388 0.68368 0.26388z"/>
    <path d="m57.32 286.32v0.23988q-0.2279 0.024-0.41981 0.20391-0.19191 0.17992-0.35983 0.63571l-1.9671 5.1576q-0.04798 0-0.09596 0t-0.10795 0l-2.207-5.3135q-0.19191-0.46778-0.38382-0.56374-0.17992-0.10795-0.31186-0.10795v-0.25188q0.23989 0.012 0.49177 0.036 0.26388 0.012 0.56374 0.012 0.37183 0 0.77964-0.012 0.4198-0.012 0.77964-0.036v0.25188q-0.29986 0-0.53975 0.048-0.2279 0.036-0.29986 0.22789-0.05997 0.19191 0.11994 0.6597l1.4993 3.7063-0.07197 0.06 1.3674-3.5863q0.22789-0.59972 0.04798-0.83961-0.16792-0.23989-0.80363-0.28787v-0.23988q0.31186 0.012 0.51576 0.024 0.2159 0.012 0.49177 0.012t0.49177-0.012q0.2279-0.012 0.41981-0.024z"/>
    <path d="m59.115 292.59q-0.77964 0-1.1395-0.38383-0.34784-0.39581-0.34784-1.0435 0-0.50377 0.23989-0.82762 0.25188-0.33584 0.63571-0.53975 0.38382-0.2159 0.80363-0.35983 0.4318-0.15593 0.81562-0.29986 0.38382-0.14394 0.62371-0.32385 0.25188-0.17992 0.25188-0.45579v-0.74366q0-0.50376-0.15593-0.76764-0.14393-0.26388-0.39582-0.34784-0.25188-0.096-0.56374-0.096-0.29986 0-0.6477 0.084-0.33584 0.084-0.53975 0.34784 0.2279 0.048 0.39582 0.23989 0.16792 0.19191 0.16792 0.49177 0 0.29987-0.19191 0.47978-0.19191 0.16792-0.49177 0.16792-0.34784 0-0.51576-0.2159-0.15593-0.22789-0.15593-0.50376 0-0.31186 0.15593-0.50377 0.15593-0.19191 0.39582-0.35983 0.27587-0.19191 0.70767-0.32385 0.4438-0.14394 0.99554-0.14394 0.49177 0 0.83961 0.11995 0.34784 0.10795 0.57573 0.32385 0.31186 0.28787 0.40781 0.70767 0.09596 0.40781 0.09596 0.98355v3.3344q0 0.28787 0.08396 0.4318 0.08396 0.13194 0.28787 0.13194 0.16792 0 0.28787-0.072 0.13194-0.072 0.25188-0.17991l0.13194 0.2039q-0.25188 0.19191-0.47978 0.32385-0.22789 0.11995-0.61172 0.11995-0.62371 0-0.82762-0.32385-0.2039-0.32385-0.2039-0.74366-0.38382 0.63571-0.8756 0.85161-0.47978 0.2159-1.0075 0.2159zm0.52776-0.47978q0.35983 0 0.70767-0.20391 0.34784-0.2159 0.6477-0.70767v-2.3509q-0.17992 0.26388-0.56374 0.41981-0.37183 0.15592-0.77964 0.34783-0.39582 0.17992-0.68368 0.50377-0.28787 0.31186-0.28787 0.89958 0 0.55175 0.27587 0.82762 0.27587 0.26388 0.68368 0.26388z"/>
   </g>
  </g>
 </g>
</svg>
