<?xml version="1.0" encoding="UTF-8" standalone="no"?>
<svg
   xmlns:dc="http://purl.org/dc/elements/1.1/"
   xmlns:cc="http://creativecommons.org/ns#"
   xmlns:rdf="http://www.w3.org/1999/02/22-rdf-syntax-ns#"
   xmlns:svg="http://www.w3.org/2000/svg"
   xmlns="http://www.w3.org/2000/svg"
   xmlns:sodipodi="http://sodipodi.sourceforge.net/DTD/sodipodi-0.dtd"
   xmlns:inkscape="http://www.inkscape.org/namespaces/inkscape"
   version="1.1"
   x="0px"
   y="0px"
   viewBox="0 0 164 174"
   enable-background="new 0 0 164 164"
   xml:space="preserve"
   id="svg172"
   sodipodi:docname="noun_program coding_1885316.svg"
   inkscape:version="0.92.3 (2405546, 2018-03-11)"
   width="164"
   height="174"><metadata
     id="metadata178"><rdf:RDF><cc:Work
         rdf:about=""><dc:format>image/svg+xml</dc:format><dc:type
           rdf:resource="http://purl.org/dc/dcmitype/StillImage" /><dc:title></dc:title></cc:Work></rdf:RDF></metadata><defs
     id="defs176" /><sodipodi:namedview
     pagecolor="#ffffff"
     bordercolor="#666666"
     borderopacity="1"
     objecttolerance="10"
     gridtolerance="10"
     guidetolerance="10"
     inkscape:pageopacity="0"
     inkscape:pageshadow="2"
     inkscape:window-width="1920"
     inkscape:window-height="1017"
     id="namedview174"
     showgrid="false"
     inkscape:zoom="2.302439"
     inkscape:cx="18.828359"
     inkscape:cy="48.864409"
     inkscape:window-x="0"
     inkscape:window-y="0"
     inkscape:window-maximized="1"
     inkscape:current-layer="svg172" /><g
     id="g166"
     transform="translate(0.86864408,4.6144071)"><g
       id="g4"><path
         d="m 76.5,143.7 c 0,-0.5 -0.4,-1 -1,-1 H 52.3 c -0.5,0 -1,0.4 -1,1 0,0.5 0.4,1 1,1 h 23.3 c 0.5,0 0.9,-0.5 0.9,-1 z"
         id="path2"
         inkscape:connector-curvature="0" /></g><g
       id="g8"><path
         d="m 84.1,143.7 c 0,-0.5 -0.4,-1 -1,-1 h -3.8 c -0.5,0 -1,0.4 -1,1 0,0.5 0.4,1 1,1 h 3.8 c 0.5,0 1,-0.5 1,-1 z"
         id="path6"
         inkscape:connector-curvature="0" /></g><g
       id="g12"><path
         d="m 86.4,144.7 h 2.5 c 0.5,0 1,-0.4 1,-1 0,-0.5 -0.4,-1 -1,-1 h -2.5 c -0.5,0 -1,0.4 -1,1 0,0.5 0.5,1 1,1 z"
         id="path10"
         inkscape:connector-curvature="0" /></g><g
       id="g16"><path
         d="M 105.2,147.4 H 81.9 c -0.5,0 -1,0.4 -1,1 0,0.5 0.4,1 1,1 h 23.3 c 0.5,0 1,-0.4 1,-1 -0.1,-0.5 -0.5,-1 -1,-1 z"
         id="path14"
         inkscape:connector-curvature="0" /></g><g
       id="g20"><path
         d="m 78.2,147.4 h -3.8 c -0.5,0 -1,0.4 -1,1 0,0.5 0.4,1 1,1 h 3.8 c 0.5,0 1,-0.4 1,-1 0,-0.5 -0.5,-1 -1,-1 z"
         id="path18"
         inkscape:connector-curvature="0" /></g><g
       id="g24"><path
         d="m 71.1,147.4 h -2.5 c -0.5,0 -1,0.4 -1,1 0,0.5 0.4,1 1,1 h 2.5 c 0.5,0 1,-0.4 1,-1 -0.1,-0.5 -0.5,-1 -1,-1 z"
         id="path22"
         inkscape:connector-curvature="0" /></g><g
       id="g28"><path
         d="m 33,14.7 c -1.9,0 -3.4,1.5 -3.4,3.4 0,1.9 1.5,3.4 3.4,3.4 1.9,0 3.4,-1.5 3.4,-3.4 0,-1.9 -1.5,-3.4 -3.4,-3.4 z m 0,4.8 c -0.8,0 -1.4,-0.6 -1.4,-1.4 0,-0.8 0.6,-1.4 1.4,-1.4 0.8,0 1.4,0.6 1.4,1.4 0.1,0.8 -0.6,1.4 -1.4,1.4 z"
         id="path26"
         inkscape:connector-curvature="0" /></g><g
       id="g32"><path
         d="m 40.8,14.7 c -1.9,0 -3.4,1.5 -3.4,3.4 0,1.9 1.5,3.4 3.4,3.4 1.9,0 3.4,-1.5 3.4,-3.4 0,-1.9 -1.5,-3.4 -3.4,-3.4 z m 0,4.8 c -0.8,0 -1.4,-0.6 -1.4,-1.4 0,-0.8 0.6,-1.4 1.4,-1.4 0.8,0 1.4,0.6 1.4,1.4 0.1,0.8 -0.6,1.4 -1.4,1.4 z"
         id="path30"
         inkscape:connector-curvature="0" /></g><g
       id="g36"><path
         d="m 48.6,14.7 c -1.9,0 -3.4,1.5 -3.4,3.4 0,1.9 1.5,3.4 3.4,3.4 1.9,0 3.4,-1.5 3.4,-3.4 0,-1.9 -1.5,-3.4 -3.4,-3.4 z m 0,4.8 c -0.8,0 -1.4,-0.6 -1.4,-1.4 0,-0.8 0.6,-1.4 1.4,-1.4 0.8,0 1.4,0.6 1.4,1.4 0.1,0.8 -0.6,1.4 -1.4,1.4 z"
         id="path34"
         inkscape:connector-curvature="0" /></g><g
       id="g40"><path
         d="m 29.5,34.1 h 13.7 c 0.5,0 1,-0.4 1,-1 0,-0.5 -0.4,-1 -1,-1 H 29.5 c -0.5,0 -1,0.4 -1,1 0.1,0.6 0.5,1 1,1 z"
         id="path38"
         inkscape:connector-curvature="0" /></g><g
       id="g44"><path
         d="M 54.1,38.2 H 40.4 c -0.5,0 -1,0.4 -1,1 0,0.5 0.4,1 1,1 h 13.7 c 0.5,0 1,-0.4 1,-1 -0.1,-0.6 -0.5,-1 -1,-1 z"
         id="path42"
         inkscape:connector-curvature="0" /></g><g
       id="g48"><path
         d="m 59.2,40.1 h 13.7 c 0.5,0 1,-0.4 1,-1 0,-0.5 -0.4,-1 -1,-1 H 59.2 c -0.5,0 -1,0.4 -1,1 0,0.6 0.5,1 1,1 z"
         id="path46"
         inkscape:connector-curvature="0" /></g><g
       id="g52"><path
         d="M 97.4,38.2 H 78 c -0.5,0 -1,0.4 -1,1 0,0.5 0.4,1 1,1 h 19.4 c 0.5,0 1,-0.4 1,-1 0,-0.6 -0.5,-1 -1,-1 z"
         id="path50"
         inkscape:connector-curvature="0" /></g><g
       id="g56"><path
         d="M 54.1,44.2 H 40.4 c -0.5,0 -1,0.4 -1,1 0,0.5 0.4,1 1,1 h 13.7 c 0.5,0 1,-0.4 1,-1 -0.1,-0.6 -0.5,-1 -1,-1 z"
         id="path54"
         inkscape:connector-curvature="0" /></g><g
       id="g60"><path
         d="M 58.2,46.1 H 66 c 0.5,0 1,-0.4 1,-1 0,-0.5 -0.4,-1 -1,-1 h -7.9 c -0.5,0 -1,0.4 -1,1 0.1,0.6 0.5,1 1.1,1 z"
         id="path58"
         inkscape:connector-curvature="0" /></g><g
       id="g64"><path
         d="m 97.4,44.2 h -27 c -0.5,0 -1,0.4 -1,1 0,0.5 0.4,1 1,1 h 27 c 0.5,0 1,-0.4 1,-1 0,-0.6 -0.5,-1 -1,-1 z"
         id="path62"
         inkscape:connector-curvature="0" /></g><g
       id="g68"><path
         d="m 29.5,53 h 13.7 c 0.5,0 1,-0.4 1,-1 0,-0.5 -0.4,-1 -1,-1 H 29.5 c -0.5,0 -1,0.4 -1,1 0.1,0.6 0.5,1 1,1 z"
         id="path66"
         inkscape:connector-curvature="0" /></g><g
       id="g72"><path
         d="M 54.1,57.1 H 40.4 c -0.5,0 -1,0.4 -1,1 0,0.5 0.4,1 1,1 h 13.7 c 0.5,0 1,-0.4 1,-1 -0.1,-0.6 -0.5,-1 -1,-1 z"
         id="path70"
         inkscape:connector-curvature="0" /></g><g
       id="g76"><path
         d="m 58.2,58 c 0,0.5 0.4,1 1,1 h 13.7 c 0.5,0 1,-0.4 1,-1 0,-0.5 -0.4,-1 -1,-1 H 59.2 c -0.5,0.1 -1,0.5 -1,1 z"
         id="path74"
         inkscape:connector-curvature="0" /></g><g
       id="g80"><path
         d="M 97.4,57.1 H 78 c -0.5,0 -1,0.4 -1,1 0,0.5 0.4,1 1,1 h 19.4 c 0.5,0 1,-0.4 1,-1 0,-0.6 -0.5,-1 -1,-1 z"
         id="path78"
         inkscape:connector-curvature="0" /></g><g
       id="g84"><path
         d="M 54.1,63.1 H 40.4 c -0.5,0 -1,0.4 -1,1 0,0.5 0.4,1 1,1 h 13.7 c 0.5,0 1,-0.4 1,-1 -0.1,-0.6 -0.5,-1 -1,-1 z"
         id="path82"
         inkscape:connector-curvature="0" /></g><g
       id="g88"><path
         d="M 58.2,65 H 66 c 0.5,0 1,-0.4 1,-1 0,-0.5 -0.4,-1 -1,-1 h -7.9 c -0.5,0 -1,0.4 -1,1 0.1,0.6 0.5,1 1.1,1 z"
         id="path86"
         inkscape:connector-curvature="0" /></g><g
       id="g92"><path
         d="m 97.4,63.1 h -27 c -0.5,0 -1,0.4 -1,1 0,0.5 0.4,1 1,1 h 27 c 0.5,0 1,-0.4 1,-1 0,-0.6 -0.5,-1 -1,-1 z"
         id="path90"
         inkscape:connector-curvature="0" /></g><g
       id="g96"><path
         d="m 29.5,71.9 h 13.7 c 0.5,0 1,-0.4 1,-1 0,-0.5 -0.4,-1 -1,-1 H 29.5 c -0.5,0 -1,0.4 -1,1 0.1,0.5 0.5,1 1,1 z"
         id="path94"
         inkscape:connector-curvature="0" /></g><g
       id="g100"><path
         d="M 54.1,75.9 H 40.4 c -0.5,0 -1,0.4 -1,1 0,0.5 0.4,1 1,1 h 13.7 c 0.5,0 1,-0.4 1,-1 -0.1,-0.5 -0.5,-1 -1,-1 z"
         id="path98"
         inkscape:connector-curvature="0" /></g><g
       id="g104"><path
         d="m 58.2,76.9 c 0,0.5 0.4,1 1,1 h 13.7 c 0.5,0 1,-0.4 1,-1 0,-0.5 -0.4,-1 -1,-1 H 59.2 c -0.5,0 -1,0.5 -1,1 z"
         id="path102"
         inkscape:connector-curvature="0" /></g><g
       id="g108"><path
         d="M 97.4,75.9 H 78 c -0.5,0 -1,0.4 -1,1 0,0.5 0.4,1 1,1 h 19.4 c 0.5,0 1,-0.4 1,-1 0,-0.5 -0.5,-1 -1,-1 z"
         id="path106"
         inkscape:connector-curvature="0" /></g><g
       id="g112"><path
         d="M 54.1,81.9 H 40.4 c -0.5,0 -1,0.4 -1,1 0,0.5 0.4,1 1,1 h 13.7 c 0.5,0 1,-0.4 1,-1 -0.1,-0.5 -0.5,-1 -1,-1 z"
         id="path110"
         inkscape:connector-curvature="0" /></g><g
       id="g116"><path
         d="M 58.2,83.9 H 66 c 0.5,0 1,-0.4 1,-1 0,-0.5 -0.4,-1 -1,-1 h -7.9 c -0.5,0 -1,0.4 -1,1 0.1,0.5 0.5,1 1.1,1 z"
         id="path114"
         inkscape:connector-curvature="0" /></g><g
       id="g120"><path
         d="M 83.9,81.9 H 70.4 c -0.5,0 -1,0.4 -1,1 0,0.5 0.4,1 1,1 h 13.5 c 0.5,0 1,-0.4 1,-1 0,-0.5 -0.5,-1 -1,-1 z"
         id="path118"
         inkscape:connector-curvature="0" /></g><g
       id="g124"><path
         d="m 44.2,89.8 c 0,-0.5 -0.4,-1 -1,-1 H 29.5 c -0.5,0 -1,0.4 -1,1 0,0.5 0.4,1 1,1 h 13.7 c 0.6,-0.1 1,-0.5 1,-1 z"
         id="path122"
         inkscape:connector-curvature="0" /></g><g
       id="g128"><path
         d="M 54.1,94.8 H 40.4 c -0.5,0 -1,0.4 -1,1 0,0.5 0.4,1 1,1 h 13.7 c 0.5,0 1,-0.4 1,-1 -0.1,-0.6 -0.5,-1 -1,-1 z"
         id="path126"
         inkscape:connector-curvature="0" /></g><g
       id="g132"><path
         d="M 72.9,94.8 H 59.2 c -0.5,0 -1,0.4 -1,1 0,0.5 0.4,1 1,1 h 13.7 c 0.5,0 1,-0.4 1,-1 0,-0.6 -0.5,-1 -1,-1 z"
         id="path130"
         inkscape:connector-curvature="0" /></g><g
       id="g136"><path
         d="M 54.1,100.8 H 40.4 c -0.5,0 -1,0.4 -1,1 0,0.5 0.4,1 1,1 h 13.7 c 0.5,0 1,-0.4 1,-1 -0.1,-0.6 -0.5,-1 -1,-1 z"
         id="path134"
         inkscape:connector-curvature="0" /></g><g
       id="g140"><path
         d="m 66,100.8 h -7.9 c -0.5,0 -1,0.4 -1,1 0,0.5 0.4,1 1,1 H 66 c 0.5,0 1,-0.4 1,-1 0,-0.6 -0.4,-1 -1,-1 z"
         id="path138"
         inkscape:connector-curvature="0" /></g><g
       id="g144"><path
         d="m 103.3,94.6 c -7.9,0 -14.3,6.4 -14.3,14.3 0,7.9 6.4,14.3 14.3,14.3 7.9,0 14.3,-6.4 14.3,-14.3 0,-7.8 -6.4,-14.3 -14.3,-14.3 z m 0,26.7 c -6.8,0 -12.4,-5.5 -12.4,-12.4 0,-6.9 5.5,-12.4 12.4,-12.4 6.8,0 12.4,5.5 12.4,12.4 0,6.9 -5.6,12.4 -12.4,12.4 z"
         id="path142"
         inkscape:connector-curvature="0" /></g><g
       id="g148"><rect
         x="99.800003"
         y="107"
         width="7.0999999"
         height="1.3"
         id="rect146" /></g><g
       id="g152"><rect
         x="99.800003"
         y="109.6"
         width="7.0999999"
         height="1.3"
         id="rect150" /></g><g
       id="g156"><path
         d="m 95.8,104.5 v 2.9 c 0,0.3 -0.1,0.5 -0.2,0.7 -0.1,0.1 -0.3,0.2 -0.5,0.2 h -0.3 v 1.3 h 0.3 c 0.2,0 0.4,0.1 0.5,0.2 0.1,0.1 0.2,0.3 0.2,0.7 v 3 c 0,1.2 0.6,1.8 1.9,1.8 h 0.5 V 114 c -0.4,0 -0.6,0 -0.8,-0.1 -0.1,-0.1 -0.2,-0.3 -0.2,-0.5 V 110 c 0,-0.7 -0.3,-1 -0.9,-1.1 0.6,-0.1 0.9,-0.5 0.9,-1.1 v -3 c 0,-0.5 0.3,-0.8 0.9,-0.8 0,0 0.1,0 0.1,0 v -1.3 h -0.5 c -1.2,-0.1 -1.9,0.5 -1.9,1.8 z"
         id="path154"
         inkscape:connector-curvature="0" /></g><g
       id="g160"><path
         d="m 111,108 c -0.1,-0.1 -0.2,-0.4 -0.2,-0.7 v -2.9 c 0,-1.2 -0.6,-1.8 -1.9,-1.8 h -0.5 v 1.3 h 0.3 v 0 c 0.1,0 0.3,0.1 0.5,0.2 0.2,0.1 0.2,0.3 0.2,0.6 v 3 c 0,0.7 0.3,1 0.9,1.1 -0.6,0.1 -0.9,0.5 -0.9,1.1 v 3.3 c 0,0.2 -0.1,0.4 -0.2,0.5 -0.1,0.1 -0.4,0.1 -0.8,0.1 v 1.3 h 0.5 c 1.3,0 1.9,-0.6 1.9,-1.8 v -3 c 0,-0.3 0.1,-0.5 0.2,-0.7 0.1,-0.1 0.3,-0.2 0.5,-0.2 h 0.3 v -1.3 h -0.3 c -0.2,0.1 -0.4,0.1 -0.5,-0.1 z"
         id="path158"
         inkscape:connector-curvature="0" /></g><g
       id="g164"><path
         d="m 162.8,49 c 0,0 0,0 0,0 l -8.6,-12.6 c 0,0 0,0 0,0 C 154,36.2 153.7,36 153.4,36 h -12 C 126.8,16.1 103.4,4.3 78.8,4.3 67.5,4.3 56.7,6.7 46.5,11.3 H 29.9 c -4,0 -7.3,3.3 -7.3,7.3 v 9.6 C 8.7,42.7 1,61.8 1,82 c 0,42.7 34.8,77.7 77.7,77.7 42.8,0 77.7,-34.9 77.7,-77.7 0,-6.9 -0.9,-13.8 -2.7,-20.5 l 9,-11.3 c 0.4,-0.3 0.4,-0.8 0.1,-1.2 z m -44,-10.4 6.8,10 H 112 Z m 32.8,-0.7 -6.8,10 -6.8,-10 c 3.1,0 9.2,0 13.6,0 z m -8.7,10.8 h -13.7 l 6.8,-10 z m -15.4,-0.8 -6.8,-10 h 13.7 z m -0.8,2.7 7.3,27.3 -21.8,-27.3 z m 2,0 h 14.8 l -7.4,27.7 z m 24.7,-12 6.8,10 H 146.5 Z M 98,13.3 c 0,0 0,0 0,0 0.4,0.1 0.7,0.2 1.1,0.3 0,0 0,0 0,0 0.1,0 0.1,0.1 0.2,0.1 1.8,0.9 3.1,2.7 3.1,4.9 V 23 H 24.6 v -4.5 c 0,-3 2.4,-5.4 5.4,-5.4 h 67 c 0.2,0 0.4,0 0.5,0 0.2,0.1 0.3,0.2 0.5,0.2 z m 24.5,85.4 c 0.7,1.3 1.2,2.6 1.6,3.9 0.1,0.3 0.3,0.6 0.6,0.6 l 5.6,1.7 v 8 l -5.6,1.7 c -0.3,0.1 -0.6,0.3 -0.6,0.6 -0.4,1.4 -1,2.7 -1.6,3.9 -0.2,0.3 -0.2,0.6 0,0.9 l 2.8,5.1 -5.7,5.7 -5.1,-2.8 c -0.3,-0.2 -0.6,-0.2 -0.9,0 -1.2,0.7 -2.6,1.2 -3.9,1.6 -0.3,0.1 -0.6,0.3 -0.6,0.6 l -1.7,5.6 h -8 l -1.7,-5.6 c -0.1,-0.3 -0.3,-0.6 -0.6,-0.6 -1.4,-0.4 -2.7,-1 -3.9,-1.6 -0.3,-0.2 -0.6,-0.2 -0.9,0 l -5.1,2.8 -5.7,-5.7 2.8,-5.1 c 0.2,-0.3 0.2,-0.6 0,-0.9 -0.7,-1.3 -1.2,-2.6 -1.6,-3.9 -0.1,-0.3 -0.3,-0.6 -0.6,-0.6 l -5.6,-1.7 v -8 l 5.6,-1.7 c 0.3,-0.1 0.6,-0.3 0.6,-0.6 0.4,-1.4 1,-2.7 1.6,-3.9 0.2,-0.3 0.2,-0.6 0,-0.9 L 81.5,92.7 87,87 l 5.1,2.8 c 0.3,0.2 0.6,0.2 0.9,0 1.3,-0.7 2.6,-1.2 3.9,-1.6 0.3,-0.1 0.6,-0.3 0.6,-0.6 L 99.2,82 h 4 c 0,0 0,0 0,0 0,0 0,0 0,0 h 4 l 1.7,5.6 c 0.1,0.3 0.3,0.6 0.6,0.6 1.4,0.4 2.7,1 3.9,1.6 0.3,0.2 0.6,0.2 0.9,0 l 5.1,-2.8 5.7,5.7 -2.8,5.1 c 0,0.3 0,0.6 0.2,0.9 z M 98.6,80 c -0.4,0 -0.8,0.3 -0.9,0.7 L 96,86.5 c -1.1,0.4 -2.3,0.8 -3.3,1.4 L 87.3,85 c -0.4,-0.2 -0.8,-0.1 -1.1,0.2 l -6.7,6.7 c -0.3,0.3 -0.4,0.8 -0.2,1.1 l 2.9,5.3 c -0.5,1.1 -1,2.2 -1.4,3.3 l -5.8,1.7 c -0.4,0.1 -0.7,0.5 -0.7,0.9 v 9.4 c 0,0.4 0.3,0.8 0.7,0.9 l 5.8,1.7 c 0.4,1.1 0.8,2.3 1.4,3.3 l -2.1,3.8 H 29.9 c -3,0 -5.4,-2.4 -5.4,-5.4 v -93 h 77.8 V 80 Z M 2.9,82 c 0,-19 7,-37 19.7,-51 v 87 c 0,4 3.3,7.3 7.3,7.3 h 49.3 c 0,0.3 0.1,0.5 0.3,0.7 l 6.7,6.7 c 0.3,0.3 0.8,0.4 1.1,0.2 l 5.3,-2.9 c 1.1,0.5 2.2,1 3.3,1.4 l 1.4,4.6 H 25.5 C 11.6,122.2 2.9,103.1 2.9,82 Z m 24.6,55.9 h 71.1 9.4 21.9 c -13.5,12.4 -31.5,20 -51.2,20 C 59,157.8 41,150.3 27.5,137.9 Z M 154.6,82 c 0,21.1 -8.7,40.2 -22.6,54 h -22.6 l 1.4,-4.6 c 1.1,-0.4 2.3,-0.8 3.3,-1.4 l 5.3,2.9 c 0.4,0.2 0.8,0.1 1.1,-0.2 l 6.7,-6.7 c 0.3,-0.3 0.4,-0.8 0.2,-1.1 l -2.9,-5.3 c 0.5,-1.1 1,-2.2 1.4,-3.3 l 5.8,-1.7 c 0.4,-0.1 0.7,-0.5 0.7,-0.9 v -9.4 c 0,-0.4 -0.3,-0.8 -0.7,-0.9 l -5.8,-1.7 c -0.4,-1.1 -0.8,-2.3 -1.4,-3.3 l 2.9,-5.3 c 0.2,-0.4 0.1,-0.8 -0.2,-1.1 l -6.7,-6.7 c -0.3,-0.3 -0.8,-0.4 -1.1,-0.2 l -5.3,2.9 c -1.1,-0.5 -2.2,-1 -3.3,-1.4 l -1.7,-5.8 c -0.1,-0.4 -0.5,-0.7 -0.9,-0.7 h -3.8 V 18.5 c 0,-3.2 -2.1,-5.9 -4.9,-6.9 -0.1,0 -0.1,-0.1 -0.2,-0.1 -0.1,0 -0.1,0 -0.2,-0.1 -0.2,0 -0.3,-0.1 -0.5,-0.1 -0.1,0 -0.2,0 -0.3,0 -0.2,0 -0.3,-0.1 -0.5,-0.1 -0.2,0 -0.5,0 -0.7,0 H 51.4 c 8.7,-3.4 17.9,-5.1 27.3,-5.1 23.6,0 45.9,11.1 60.2,29.8 -5.2,0 -15,0 -20.2,0 -0.3,0 -0.6,0.2 -0.8,0.4 0,0 0,0 0,0 L 109.4,49 c 0,0 0,0 0,0 -0.3,0.4 -0.3,0.9 0,1.2 l 25.9,32.4 c 0,0 0,0 0,0 0.4,0.5 1.1,0.4 1.4,0 l 15.4,-19.2 c 1.7,6 2.5,12.3 2.5,18.6 z m -16.4,-4.2 7.3,-27.3 H 160 Z"
         id="path162"
         inkscape:connector-curvature="0" /></g></g></svg>