<?xml version="1.0" encoding="UTF-8" standalone="no"?>
<svg
   xmlns:dc="http://purl.org/dc/elements/1.1/"
   xmlns:cc="http://creativecommons.org/ns#"
   xmlns:rdf="http://www.w3.org/1999/02/22-rdf-syntax-ns#"
   xmlns:svg="http://www.w3.org/2000/svg"
   xmlns="http://www.w3.org/2000/svg"
   xmlns:sodipodi="http://sodipodi.sourceforge.net/DTD/sodipodi-0.dtd"
   xmlns:inkscape="http://www.inkscape.org/namespaces/inkscape"
   version="1.1"
   x="0px"
   y="0px"
   viewBox="0 0 164 174"
   enable-background="new 0 0 164 164"
   xml:space="preserve"
   id="svg56"
   sodipodi:docname="noun_creative process_1885356.svg"
   inkscape:version="0.92.3 (2405546, 2018-03-11)"
   width="164"
   height="174"><metadata
     id="metadata62"><rdf:RDF><cc:Work
         rdf:about=""><dc:format>image/svg+xml</dc:format><dc:type
           rdf:resource="http://purl.org/dc/dcmitype/StillImage" /><dc:title></dc:title></cc:Work></rdf:RDF></metadata><defs
     id="defs60" /><sodipodi:namedview
     pagecolor="#ffffff"
     bordercolor="#666666"
     borderopacity="1"
     objecttolerance="10"
     gridtolerance="10"
     guidetolerance="10"
     inkscape:pageopacity="0"
     inkscape:pageshadow="2"
     inkscape:window-width="1920"
     inkscape:window-height="1017"
     id="namedview58"
     showgrid="false"
     inkscape:zoom="1.1512195"
     inkscape:cx="-55.680086"
     inkscape:cy="102.5"
     inkscape:window-x="0"
     inkscape:window-y="0"
     inkscape:window-maximized="1"
     inkscape:current-layer="svg56" /><g
     id="g50"
     transform="translate(0.86864407,4.6144068)"><g
       id="g4"><path
         d="m 78,144.9 c 0,-0.5 -0.4,-1 -1,-1 H 53.3 c -0.5,0 -1,0.4 -1,1 0,0.5 0.4,1 1,1 H 77 c 0.6,0 1,-0.4 1,-1 z"
         id="path2"
         inkscape:connector-curvature="0" /></g><g
       id="g8"><path
         d="m 85.8,144.9 c 0,-0.5 -0.4,-1 -1,-1 h -3.9 c -0.5,0 -1,0.4 -1,1 0,0.5 0.4,1 1,1 h 3.9 c 0.5,0 1,-0.4 1,-1 z"
         id="path6"
         inkscape:connector-curvature="0" /></g><g
       id="g12"><path
         d="m 88.1,145.9 h 2.6 c 0.5,0 1,-0.4 1,-1 0,-0.5 -0.4,-1 -1,-1 h -2.6 c -0.5,0 -1,0.4 -1,1 0,0.6 0.5,1 1,1 z"
         id="path10"
         inkscape:connector-curvature="0" /></g><g
       id="g16"><path
         d="M 107.3,148.7 H 83.6 c -0.5,0 -1,0.4 -1,1 0,0.5 0.4,1 1,1 h 23.7 c 0.5,0 1,-0.4 1,-1 0,-0.5 -0.5,-1 -1,-1 z"
         id="path14"
         inkscape:connector-curvature="0" /></g><g
       id="g20"><path
         d="m 79.8,148.7 h -3.9 c -0.5,0 -1,0.4 -1,1 0,0.5 0.4,1 1,1 h 3.9 c 0.5,0 1,-0.4 1,-1 -0.1,-0.5 -0.5,-1 -1,-1 z"
         id="path18"
         inkscape:connector-curvature="0" /></g><g
       id="g24"><path
         d="m 72.5,148.7 h -2.6 c -0.5,0 -1,0.4 -1,1 0,0.5 0.4,1 1,1 h 2.6 c 0.5,0 1,-0.4 1,-1 0,-0.5 -0.5,-1 -1,-1 z"
         id="path22"
         inkscape:connector-curvature="0" /></g><g
       id="g28"><path
         d="m 105.9,35.4 c 0,0 0.1,0 0,0 0.6,0 1,-0.4 1,-1 0.2,-8.8 7.2,-16.1 15.9,-16.6 0.5,0 1,-0.5 0.9,-1 0,-0.5 -0.5,-0.9 -1,-0.9 -9.7,0.6 -17.5,8.7 -17.8,18.5 0.1,0.6 0.5,1 1,1 z"
         id="path26"
         inkscape:connector-curvature="0" /></g><g
       id="g32"><path
         d="m 158.3,96.4 c 0.9,-4.7 1.3,-9.5 1.3,-14.4 0,-15.1 -4.2,-29.7 -12.2,-42.3 0.3,-1.6 0.5,-3.2 0.5,-4.8 0,-6.6 -2.7,-12.9 -7.5,-17.4 -4.9,-4.6 -11.2,-6.8 -17.9,-6.4 -1.7,0.1 -3.4,0.4 -5,0.9 C 106.2,6 93.3,2.8 80.4,2.8 67.9,2.7 56,5.5 45,11 H 22.1 c -0.5,0 -1,0.4 -1,1 V 29.3 C 8.1,43.8 1,62.5 1,82 c 0,43.7 35.6,79.3 79.3,79.3 34.7,0 64.5,-22.5 75.2,-54 h 2.1 c 3,0 5.5,-2.5 5.5,-5.5 -0.1,-2.8 -2.2,-5.1 -4.8,-5.4 z M 157.7,82 c 0,4.9 -0.5,9.7 -1.3,14.3 h -27.8 c -1.9,0 -3.5,-1.6 -3.5,-3.5 v -5 h 3.6 c 1.3,0 2.3,-1 2.3,-2.3 v -2.9 h 2.6 c 1.9,0 3.4,-1.5 3.4,-3.4 v -9.9 c 0,-1.6 -1.1,-2.9 -2.6,-3.3 0.9,-5.5 3.4,-10.7 7.4,-15.2 2.3,-2.5 3.9,-5.5 5,-8.6 7.1,12 10.9,25.7 10.9,39.8 z M 114.4,67.9 h 19.1 c 0.8,0 1.4,0.6 1.4,1.4 v 1.6 H 113 v -1.6 c 0,-0.8 0.7,-1.4 1.4,-1.4 z m 6.1,-18.8 h -2.2 c -1.2,0 -2.2,-1 -2.2,-2.2 0,-1.2 1,-2.2 2.2,-2.2 1.2,0 2.2,1 2.2,2.2 z m 5,16.8 h -3.1 V 51 h 3.1 z m -12.5,7 h 21.9 v 2.9 H 113 Z m 0,4.8 h 21.9 v 1.6 c 0,0.8 -0.6,1.4 -1.4,1.4 h -3.6 -11.8 -3.6 c -0.8,0 -1.4,-0.6 -1.4,-1.4 v -1.6 z m 6,4.9 h 9.9 v 2.9 c 0,0.2 -0.1,0.3 -0.3,0.3 h -9.2 c -0.2,0 -0.3,-0.1 -0.3,-0.3 V 82.6 Z M 122.6,13 c 6.1,-0.4 12,1.7 16.4,5.9 4.5,4.2 6.9,9.9 6.9,16 0,5.4 -2,10.7 -5.7,14.7 -4.3,4.7 -7,10.4 -7.9,16.4 h -4.9 V 51 h 2.2 c 2.3,0 4.2,-1.9 4.2,-4.2 0,-2.3 -1.9,-4.2 -4.2,-4.2 -2.3,0 -4.2,1.9 -4.2,4.2 V 49 h -3.1 v -2.2 c 0,-2.3 -1.9,-4.2 -4.2,-4.2 -2.3,0 -4.2,1.9 -4.2,4.2 0,2.3 1.9,4.2 4.2,4.2 h 2.2 v 14.9 h -4.8 c -0.9,-6 -3.5,-11.7 -7.6,-16 -4,-4.2 -6.1,-9.8 -6,-15.6 0.4,-11.2 9.4,-20.6 20.7,-21.3 z m 4.9,36.1 v -2.2 c 0,-1.2 1,-2.2 2.2,-2.2 1.2,0 2.2,1 2.2,2.2 0,1.2 -1,2.2 -2.2,2.2 z M 80.3,4.6 c 12,0 23.9,2.8 34.6,8.1 -8.5,3.5 -14.6,11.9 -14.8,21.5 -0.1,6.4 2.2,12.4 6.5,17 3.7,4 6.2,9.2 7,14.7 -1.5,0.4 -2.6,1.7 -2.6,3.3 v 9.9 c 0,1.9 1.5,3.4 3.4,3.4 h 2.6 v 2.9 c 0,1.3 1,2.3 2.3,2.3 h 3.6 v 5 c 0,3 2.5,5.5 5.5,5.5 h 27.5 c -0.5,2.4 -1.1,4.7 -1.9,7 H 96.7 c -2.5,0 -4.5,2 -4.5,4.5 0,2.5 2,4.5 4.5,4.5 h 35.5 c 4.9,0 8.8,3.9 8.8,8.8 0,4.9 -3.9,8.8 -8.8,8.8 H 62 c -3.5,0 -6.4,-2.6 -6.8,-6 2.7,-0.5 4.8,-2.9 4.8,-5.7 v -2.8 -16.6 h 26.3 c 0.5,0 1,-0.4 1,-1 V 12 c 0,-0.5 -0.4,-1 -1,-1 H 49.6 c 9.7,-4.2 20,-6.4 30.7,-6.4 z m -26.1,57.5 3.3,7.3 h -6.7 z m -3.9,9.2 H 58 v 4.9 c 0,0 0,0 0,0 v 0 10.3 c 0,0 0,0 0,0 v 0 13.2 0 0 16.6 h -7.7 z m 0,47.1 H 58 v 1.9 c 0,2.1 -1.7,3.9 -3.9,3.9 -2.1,0 -3.9,-1.7 -3.9,-3.9 v -1.9 z M 23.1,12.9 H 45.3 85.4 V 98.8 H 60 V 87.6 h 18.1 c 0.5,0 1,-0.4 1,-1 0,-0.6 -0.4,-1 -1,-1 H 60 v -8.4 h 18.1 c 0.5,0 1,-0.4 1,-1 0,-0.6 -0.4,-1 -1,-1 H 60 V 70.3 C 60,70 59.8,69.7 58.5,66.9 H 78 c 0.5,0 1,-0.4 1,-1 0,-0.5 -0.4,-1 -1,-1 H 57.7 l -2.6,-5.6 c -0.2,-0.3 -0.5,-0.6 -0.9,-0.6 -0.4,0 -0.7,0.2 -0.9,0.6 L 50.7,65 H 30.3 c -0.5,0 -1,0.4 -1,1 0,0.5 0.4,1 1,1 h 19.5 l -1.4,3 c 0,0.1 -0.1,0.3 -0.1,0.4 v 4.9 h -18 c -0.5,0 -1,0.4 -1,1 0,0.6 0.4,1 1,1 h 18 v 8.4 h -18 c -0.5,0 -1,0.4 -1,1 0,0.6 0.4,1 1,1 h 18 V 98.9 H 23.1 V 29.6 Z m 5,126.1 h 104.5 c -13.8,12.6 -32.1,20.4 -52.2,20.4 -20.1,0 -38.5,-7.8 -52.3,-20.4 z m 106.5,-2 H 26 C 11.8,123 3,103.5 3,82 3,63.7 9.4,46.1 21.1,32.2 v 67.6 c 0,0.5 0.4,1 1,1 h 26.3 v 16.6 2.8 c 0,2.9 2.1,5.3 4.9,5.7 0.5,4.4 4.2,7.9 8.8,7.9 h 70.1 c 5.9,0 10.8,-4.8 10.8,-10.8 0,-5.9 -4.8,-10.8 -10.8,-10.8 H 96.7 c -1.4,0 -2.6,-1.2 -2.6,-2.6 0,-1.4 1.2,-2.6 2.6,-2.6 h 56.7 c -3.9,11.6 -10.4,21.8 -18.8,30 z m 22.9,-31.7 h -1.4 c 0.7,-2.3 1.3,-4.6 1.8,-7 1.7,0.2 3.1,1.7 3.1,3.5 0,1.9 -1.5,3.5 -3.5,3.5 z"
         id="path30"
         inkscape:connector-curvature="0" /></g><g
       id="g36"><path
         d="m 38.1,23.1 h 32.2 c 0.5,0 1,-0.4 1,-1 0,-0.6 -0.4,-1 -1,-1 H 38.1 c -0.5,0 -1,0.4 -1,1 0,0.6 0.4,1 1,1 z"
         id="path34"
         inkscape:connector-curvature="0" /></g><g
       id="g40"><path
         d="m 30.3,35.9 h 47.8 c 0.5,0 1,-0.4 1,-1 0,-0.5 -0.4,-1 -1,-1 H 30.3 c -0.5,0 -1,0.4 -1,1 0,0.6 0.5,1 1,1 z"
         id="path38"
         inkscape:connector-curvature="0" /></g><g
       id="g44"><path
         d="m 30.3,46.3 h 47.8 c 0.5,0 1,-0.4 1,-1 0,-0.5 -0.4,-1 -1,-1 H 30.3 c -0.5,0 -1,0.4 -1,1 0,0.5 0.5,1 1,1 z"
         id="path42"
         inkscape:connector-curvature="0" /></g><g
       id="g48"><path
         d="m 30.3,56.6 h 47.8 c 0.5,0 1,-0.4 1,-1 0,-0.6 -0.4,-1 -1,-1 H 30.3 c -0.5,0 -1,0.4 -1,1 0,0.6 0.5,1 1,1 z"
         id="path46"
         inkscape:connector-curvature="0" /></g></g></svg>