<?xml version="1.0" encoding="UTF-8" standalone="no"?>
<svg
   xmlns:dc="http://purl.org/dc/elements/1.1/"
   xmlns:cc="http://creativecommons.org/ns#"
   xmlns:rdf="http://www.w3.org/1999/02/22-rdf-syntax-ns#"
   xmlns:svg="http://www.w3.org/2000/svg"
   xmlns="http://www.w3.org/2000/svg"
   xmlns:sodipodi="http://sodipodi.sourceforge.net/DTD/sodipodi-0.dtd"
   xmlns:inkscape="http://www.inkscape.org/namespaces/inkscape"
   version="1.1"
   x="0px"
   y="0px"
   viewBox="0 0 164 174"
   enable-background="new 0 0 164 164"
   xml:space="preserve"
   id="svg96"
   sodipodi:docname="noun_Prototyping_1885369.svg"
   inkscape:version="0.92.3 (2405546, 2018-03-11)"
   width="164"
   height="174"><metadata
     id="metadata102"><rdf:RDF><cc:Work
         rdf:about=""><dc:format>image/svg+xml</dc:format><dc:type
           rdf:resource="http://purl.org/dc/dcmitype/StillImage" /><dc:title></dc:title></cc:Work></rdf:RDF></metadata><defs
     id="defs100" /><sodipodi:namedview
     pagecolor="#ffffff"
     bordercolor="#666666"
     borderopacity="1"
     objecttolerance="10"
     gridtolerance="10"
     guidetolerance="10"
     inkscape:pageopacity="0"
     inkscape:pageshadow="2"
     inkscape:window-width="1920"
     inkscape:window-height="1017"
     id="namedview98"
     showgrid="false"
     inkscape:zoom="1.1512195"
     inkscape:cx="-55.680086"
     inkscape:cy="102.5"
     inkscape:window-x="0"
     inkscape:window-y="0"
     inkscape:window-maximized="1"
     inkscape:current-layer="svg96" /><g
     id="g90"
     transform="translate(0.86864403,4.6144067)"><g
       id="g4"><path
         d="m 79.8,147.4 c 0,-0.5 -0.4,-0.9 -0.9,-0.9 H 56.3 c -0.5,0 -0.9,0.4 -0.9,0.9 0,0.5 0.4,0.9 0.9,0.9 h 22.6 c 0.5,0 0.9,-0.4 0.9,-0.9 z"
         id="path2"
         inkscape:connector-curvature="0" /></g><g
       id="g8"><path
         d="m 87.2,147.4 c 0,-0.5 -0.4,-0.9 -0.9,-0.9 h -3.7 c -0.5,0 -0.9,0.4 -0.9,0.9 0,0.5 0.4,0.9 0.9,0.9 h 3.7 c 0.5,0 0.9,-0.4 0.9,-0.9 z"
         id="path6"
         inkscape:connector-curvature="0" /></g><g
       id="g12"><path
         d="m 89.4,148.3 h 2.5 c 0.5,0 0.9,-0.4 0.9,-0.9 0,-0.5 -0.4,-0.9 -0.9,-0.9 h -2.5 c -0.5,0 -0.9,0.4 -0.9,0.9 0,0.5 0.4,0.9 0.9,0.9 z"
         id="path10"
         inkscape:connector-curvature="0" /></g><g
       id="g16"><path
         d="M 107.7,151 H 85.1 c -0.5,0 -0.9,0.4 -0.9,0.9 0,0.5 0.4,0.9 0.9,0.9 h 22.6 c 0.5,0 0.9,-0.4 0.9,-0.9 0,-0.5 -0.4,-0.9 -0.9,-0.9 z"
         id="path14"
         inkscape:connector-curvature="0" /></g><g
       id="g20"><path
         d="m 81.5,151 h -3.7 c -0.5,0 -0.9,0.4 -0.9,0.9 0,0.5 0.4,0.9 0.9,0.9 h 3.7 c 0.5,0 0.9,-0.4 0.9,-0.9 0,-0.5 -0.4,-0.9 -0.9,-0.9 z"
         id="path18"
         inkscape:connector-curvature="0" /></g><g
       id="g24"><path
         d="m 74.6,151 h -2.5 c -0.5,0 -0.9,0.4 -0.9,0.9 0,0.5 0.4,0.9 0.9,0.9 h 2.5 c 0.5,0 0.9,-0.4 0.9,-0.9 0,-0.5 -0.4,-0.9 -0.9,-0.9 z"
         id="path22"
         inkscape:connector-curvature="0" /></g><g
       id="g28"><path
         d="M 147.1,125.8 C 153.9,114.2 157.6,101 157.6,87.4 157.6,73.9 154,60.6 147.1,49 v -5 c 0,-8.3 -6.7,-15 -15,-15 -0.5,0 -0.9,0.4 -0.9,0.9 v 0.2 C 118.9,19.6 103.5,13.2 87.3,12.1 V 6.3 C 87.3,3.4 84.9,1 82,1 79.1,1 76.7,3.4 76.7,6.3 V 12 C 60.6,13.1 45.1,19.5 32.8,30 v -0.2 c 0,-0.5 -0.4,-0.9 -0.9,-0.9 -8.3,0 -15,6.7 -15,15 0,0 0,0 0,0 V 49 C 10,60.7 6.4,73.9 6.4,87.4 c 0,13.5 3.6,26.8 10.4,38.4 v 1.6 c 0,7.4 5.5,13.8 12.8,14.8 0.1,0 0.2,0 0.4,0 14.1,13.4 32.6,20.8 52,20.8 19.4,0 37.9,-7.4 51.9,-20.7 7.7,-1 13.2,-7.5 13.2,-14.8 0,0 0,0 0,0 z m 8.6,-38.4 c 0,12.1 -3,23.9 -8.6,34.5 v -69 c 5.6,10.6 8.6,22.4 8.6,34.5 z M 133,30.9 c 6.8,0.5 12.2,6.2 12.2,13.1 v 76.2 c -2.4,-4.4 -7,-7.4 -12.2,-7.7 z m -1.8,1.6 V 43 h -37 l -1,-3 c 1.5,-2.3 2.4,-4.9 2.4,-7.6 0,-5.6 -3.4,-10.4 -8.3,-12.5 v -6 c 16.2,1.2 31.8,7.8 43.9,18.6 z m -19.7,70.3 -4,5.9 -5.3,-17.4 C 101.2,87.9 99.4,84.8 97,82.2 94.8,79.8 93.3,77 92.3,74 l -2.5,-8.1 v 0 L 83.6,46 c 3.2,-0.4 6,-1.8 8.2,-4.1 z m -55,5.9 -4,-5.9 19.7,-61 c 2.2,2.3 5.1,3.8 8.2,4.1 l -6.2,19.9 c 0,0 0,0 0,0 l -2.5,8 c -1,3.1 -2.6,5.9 -4.7,8.2 -2.4,2.6 -4.1,5.7 -5.2,9.1 z M 82,20.7 c 6.5,0 11.7,5.3 11.7,11.7 0,2.5 -0.8,4.9 -2.3,6.9 -2.2,2.9 -5.5,4.7 -9.1,4.8 -0.1,0 -0.2,0 -0.3,0 -0.1,0 -0.2,0 -0.4,0 C 78,44 74.6,42.2 72.5,39.3 71,37.3 70.2,34.9 70.2,32.4 70.3,26 75.5,20.7 82,20.7 Z M 82,47 87.7,65.3 H 76.3 Z M 82,2.9 c 1.9,0 3.5,1.6 3.5,3.5 v 13 c -1.1,-0.3 -2.3,-0.5 -3.5,-0.5 -1.2,0 -2.4,0.2 -3.5,0.5 v -13 c 0,-2 1.6,-3.5 3.5,-3.5 z m -5.3,11 v 6 c -4.9,2.1 -8.3,6.9 -8.3,12.5 0,2.7 0.8,5.4 2.4,7.6 l -1,3 h -37 V 32.5 C 44.9,21.7 60.5,15.1 76.7,13.9 Z M 18.7,44 c 0,-6.9 5.4,-12.6 12.2,-13.1 v 81.6 c -5.3,0.3 -9.8,3.4 -12.2,7.7 z M 8.3,87.4 c 0,-12.1 3,-23.9 8.6,-34.5 v 69 C 11.3,111.4 8.3,99.5 8.3,87.4 Z m 24.7,55 h 98 c -13.5,12.1 -30.8,18.7 -49,18.7 -18.2,0 -35.5,-6.6 -49,-18.7 z m 101.6,-2.1 c -0.2,-0.4 -0.4,-0.7 -0.6,-1.1 -0.3,-0.4 -0.8,-0.6 -1.3,-0.3 -0.4,0.3 -0.6,0.8 -0.3,1.3 0.1,0.1 0.1,0.2 0.2,0.3 -0.8,0 -78.5,0 -100.7,0 -0.2,0 -0.3,0 -0.5,0 0.1,-0.1 0.1,-0.2 0.2,-0.3 0.3,-0.4 0.1,-1 -0.3,-1.3 -0.4,-0.3 -1,-0.1 -1.3,0.3 -0.2,0.3 -0.4,0.7 -0.6,1.1 -6.1,-1.2 -10.6,-6.6 -10.6,-12.9 0,0 0,0 0,0 0,-7.2 5.9,-13.1 13.1,-13.1 0.5,0 0.9,-0.4 0.9,-0.9 V 44.9 h 36.4 l -6.6,20.4 h -6.7 v -2.5 c 0,-2.1 -1.7,-3.7 -3.7,-3.7 h -2.9 c -2.1,0 -3.7,1.7 -3.7,3.7 v 6.9 c 0,2.1 1.7,3.7 3.7,3.7 h 2.9 c 2.1,0 3.7,-1.7 3.7,-3.7 V 67.2 H 62 l -11.4,35.5 c -0.1,0.3 0,0.6 0.1,0.8 l 5.2,7.7 v 4.7 c -0.4,0.2 -0.8,0.4 -1.3,0.6 -0.5,0.2 -0.6,0.8 -0.4,1.3 0.2,0.5 0.8,0.6 1.3,0.4 1.1,-0.5 2.2,-1.1 3.3,-1.5 0.5,-0.2 0.7,-0.8 0.5,-1.2 -0.2,-0.5 -0.8,-0.7 -1.2,-0.5 -0.1,0 -0.2,0.1 -0.3,0.1 v -4 L 63.6,92 c 0.9,-3.1 2.6,-6 4.8,-8.4 2.3,-2.6 4.1,-5.6 5.1,-8.9 l 2.3,-7.3 h 12.6 l 2.3,7.3 c 1,3.3 2.8,6.3 5.1,8.9 2.2,2.4 3.8,5.3 4.8,8.4 l 5.8,19.1 v 4 c -0.1,-0.1 -0.2,-0.1 -0.3,-0.2 -0.5,-0.2 -1,0 -1.2,0.5 -0.2,0.5 0,1 0.5,1.2 1.1,0.5 2.2,1 3.3,1.5 0.5,0.2 1,0 1.3,-0.4 0.2,-0.5 0,-1 -0.4,-1.3 -0.4,-0.2 -0.8,-0.4 -1.2,-0.6 v -4.7 l 5.2,-7.7 c 0.2,-0.2 0.2,-0.5 0.1,-0.8 L 102,67.2 h 6.1 v 2.5 c 0,2.1 1.7,3.7 3.7,3.7 h 2.9 c 2.1,0 3.7,-1.7 3.7,-3.7 v -6.9 c 0,-2.1 -1.7,-3.7 -3.7,-3.7 h -2.9 c -2.1,0 -3.7,1.7 -3.7,3.7 v 2.5 h -6.7 L 94.8,44.9 h 36.4 v 68.4 c 0,0.5 0.4,0.9 0.9,0.9 7.2,0 13.1,5.8 13.1,13 v 0.1 c 0,6.4 -4.5,11.8 -10.6,13 z M 54,62.8 v 6.9 c 0,1 -0.8,1.9 -1.9,1.9 h -2.9 c -1,0 -1.9,-0.8 -1.9,-1.9 v -6.9 c 0,-1 0.8,-1.9 1.9,-1.9 h 2.9 c 1.1,0 1.9,0.9 1.9,1.9 z m 56,6.9 v -6.9 c 0,-1 0.8,-1.9 1.9,-1.9 h 2.9 c 1,0 1.9,0.8 1.9,1.9 v 6.9 c 0,1 -0.8,1.9 -1.9,1.9 h -2.9 C 110.8,71.5 110,70.7 110,69.7 Z"
         id="path26"
         inkscape:connector-curvature="0" /></g><g
       id="g32"><path
         d="m 82,39.7 c 4,0 7.3,-3.3 7.3,-7.3 0,-4 -3.3,-7.3 -7.3,-7.3 -4,0 -7.3,3.3 -7.3,7.3 0,4.1 3.3,7.3 7.3,7.3 z M 82,27 c 3,0 5.4,2.4 5.4,5.4 0,3 -2.4,5.4 -5.4,5.4 -3,0 -5.4,-2.4 -5.4,-5.4 C 76.6,29.5 79,27 82,27 Z"
         id="path30"
         inkscape:connector-curvature="0" /></g><g
       id="g36"><path
         d="m 72.6,110.7 c -1.2,0.2 -2.5,0.4 -3.7,0.7 -0.5,0.1 -0.8,0.6 -0.7,1.1 0.1,0.5 0.6,0.8 1.1,0.7 1.2,-0.3 2.4,-0.5 3.6,-0.7 0.5,-0.1 0.9,-0.6 0.8,-1.1 -0.1,-0.5 -0.6,-0.8 -1.1,-0.7 z"
         id="path34"
         inkscape:connector-curvature="0" /></g><g
       id="g40"><path
         d="m 112.7,118.2 c -0.4,-0.3 -1,-0.1 -1.3,0.3 -0.3,0.4 -0.1,1 0.3,1.3 1.1,0.6 2.1,1.3 3.1,1.9 0.4,0.3 1,0.2 1.3,-0.3 0.3,-0.4 0.2,-1 -0.3,-1.3 -1,-0.6 -2.1,-1.3 -3.1,-1.9 z"
         id="path38"
         inkscape:connector-curvature="0" /></g><g
       id="g44"><path
         d="m 118.9,122.4 c -0.4,-0.3 -1,-0.2 -1.3,0.2 -0.3,0.4 -0.2,1 0.2,1.3 1,0.7 1.9,1.5 2.8,2.3 0.4,0.3 1,0.3 1.3,-0.1 0.3,-0.4 0.3,-1 -0.1,-1.3 -0.9,-0.8 -1.9,-1.6 -2.9,-2.4 z"
         id="path42"
         inkscape:connector-curvature="0" /></g><g
       id="g48"><path
         d="m 129.7,133 c -0.3,-0.4 -0.9,-0.5 -1.3,-0.2 -0.4,0.3 -0.5,0.9 -0.2,1.3 0.8,1 1.5,1.9 2.2,2.9 0.3,0.4 0.9,0.5 1.3,0.2 0.4,-0.3 0.5,-0.9 0.2,-1.3 -0.7,-0.9 -1.4,-1.9 -2.2,-2.9 z"
         id="path46"
         inkscape:connector-curvature="0" /></g><g
       id="g52"><path
         d="m 124.6,127.4 c -0.4,-0.4 -1,-0.4 -1.3,0 -0.4,0.4 -0.4,1 0,1.3 0.9,0.9 1.7,1.8 2.5,2.7 0.3,0.4 0.9,0.4 1.3,0.1 0.4,-0.3 0.4,-0.9 0.1,-1.3 -0.8,-1 -1.7,-1.9 -2.6,-2.8 z"
         id="path50"
         inkscape:connector-curvature="0" /></g><g
       id="g56"><path
         d="m 45,122.4 c -1,0.8 -2,1.6 -2.9,2.4 -0.4,0.3 -0.4,0.9 -0.1,1.3 0.3,0.4 0.9,0.4 1.3,0.1 0.9,-0.8 1.9,-1.6 2.8,-2.3 0.4,-0.3 0.5,-0.9 0.2,-1.3 -0.3,-0.4 -0.8,-0.5 -1.3,-0.2 z"
         id="path54"
         inkscape:connector-curvature="0" /></g><g
       id="g60"><path
         d="m 51.3,118.2 c -1.1,0.6 -2.2,1.3 -3.2,2 -0.4,0.3 -0.5,0.9 -0.3,1.3 0.3,0.4 0.9,0.5 1.3,0.3 1,-0.7 2.1,-1.3 3.1,-2 0.4,-0.3 0.6,-0.8 0.3,-1.3 -0.2,-0.4 -0.7,-0.5 -1.2,-0.3 z"
         id="path58"
         inkscape:connector-curvature="0" /></g><g
       id="g64"><path
         d="m 102.4,113.4 c -1.2,-0.4 -2.4,-0.8 -3.6,-1.2 -0.5,-0.1 -1,0.1 -1.2,0.6 -0.1,0.5 0.1,1 0.6,1.2 1.2,0.3 2.4,0.7 3.5,1.1 0.5,0.2 1,-0.1 1.2,-0.6 0.2,-0.4 0,-0.9 -0.5,-1.1 z"
         id="path62"
         inkscape:connector-curvature="0" /></g><g
       id="g68"><path
         d="m 65.2,112.3 c -1.2,0.3 -2.4,0.7 -3.6,1.2 -0.5,0.2 -0.7,0.7 -0.6,1.2 0.2,0.5 0.7,0.7 1.2,0.6 1.1,-0.4 2.3,-0.8 3.5,-1.1 0.5,-0.1 0.8,-0.7 0.6,-1.2 -0.1,-0.6 -0.6,-0.9 -1.1,-0.7 z"
         id="path66"
         inkscape:connector-curvature="0" /></g><g
       id="g72"><path
         d="m 39.3,127.4 c -0.9,0.9 -1.8,1.8 -2.6,2.7 -0.3,0.4 -0.3,1 0.1,1.3 0.4,0.3 1,0.3 1.3,-0.1 0.8,-0.9 1.7,-1.8 2.5,-2.7 0.4,-0.4 0.4,-1 0,-1.3 -0.3,-0.3 -0.9,-0.3 -1.3,0.1 z"
         id="path70"
         inkscape:connector-curvature="0" /></g><g
       id="g76"><path
         d="m 95.1,111.3 c -1.2,-0.3 -2.5,-0.5 -3.7,-0.7 -0.5,-0.1 -1,0.3 -1.1,0.8 -0.1,0.5 0.3,1 0.8,1.1 1.2,0.2 2.4,0.4 3.6,0.7 1.2,0.2 1.6,-1.6 0.4,-1.9 z"
         id="path74"
         inkscape:connector-curvature="0" /></g><g
       id="g80"><path
         d="m 87.6,110.2 c -1.2,-0.1 -2.5,-0.2 -3.8,-0.2 -0.5,0 -0.9,0.4 -1,0.9 0,0.5 0.4,0.9 0.9,1 1.2,0 2.5,0.1 3.7,0.2 0,0 0.1,0 0.1,0 0.5,0 0.9,-0.4 0.9,-0.8 0.1,-0.6 -0.2,-1.1 -0.8,-1.1 z"
         id="path78"
         inkscape:connector-curvature="0" /></g><g
       id="g84"><path
         d="m 34.3,133 c -0.8,1 -1.5,2 -2.3,3 -0.3,0.4 -0.2,1 0.2,1.3 0.4,0.3 1,0.2 1.3,-0.2 0.7,-1 1.4,-2 2.2,-2.9 0.3,-0.4 0.3,-1 -0.2,-1.3 -0.3,-0.3 -0.9,-0.3 -1.2,0.1 z"
         id="path82"
         inkscape:connector-curvature="0" /></g><g
       id="g88"><path
         d="m 80.1,110 c -1.3,0 -2.5,0.1 -3.8,0.2 -0.5,0 -0.9,0.5 -0.8,1 0,0.5 0.5,0.9 1,0.8 1.2,-0.1 2.4,-0.2 3.7,-0.2 0.5,0 0.9,-0.4 0.9,-1 -0.1,-0.5 -0.5,-0.9 -1,-0.8 z"
         id="path86"
         inkscape:connector-curvature="0" /></g></g></svg>